<mxfile host="app.diagrams.net" modified="2021-02-22T11:36:20.280Z" agent="5.0 (Macintosh; Intel Mac OS X 10_15_7) AppleWebKit/537.36 (KHTML, like Gecko) Chrome/88.0.4324.182 Safari/537.36" etag="-Xr3CKIqk68URv8pl0NZ" version="14.4.2" type="github">
  <diagram id="sniLM6EpmfZfvxh34Uvm" name="Page-1">
    <mxGraphModel dx="1255" dy="843" grid="1" gridSize="10" guides="1" tooltips="1" connect="1" arrows="1" fold="1" page="1" pageScale="1" pageWidth="827" pageHeight="1169" math="0" shadow="0">
      <root>
        <mxCell id="0" />
        <mxCell id="1" parent="0" />
        <mxCell id="zM2h7L1rqt1avUAhfXW--3" value="" style="edgeStyle=orthogonalEdgeStyle;rounded=0;orthogonalLoop=1;jettySize=auto;html=1;" parent="1" source="zM2h7L1rqt1avUAhfXW--1" target="zM2h7L1rqt1avUAhfXW--2" edge="1">
          <mxGeometry relative="1" as="geometry" />
        </mxCell>
        <mxCell id="zM2h7L1rqt1avUAhfXW--1" value="a&amp;gt;10 and a/b&amp;gt;1.0 and city=&#39;sz&#39;" style="text;html=1;strokeColor=none;fillColor=none;align=center;verticalAlign=middle;whiteSpace=wrap;rounded=0;" parent="1" vertex="1">
          <mxGeometry x="70" y="310" width="120" height="70" as="geometry" />
        </mxCell>
        <mxCell id="zM2h7L1rqt1avUAhfXW--6" value="" style="edgeStyle=orthogonalEdgeStyle;rounded=0;orthogonalLoop=1;jettySize=auto;html=1;" parent="1" source="zM2h7L1rqt1avUAhfXW--2" target="zM2h7L1rqt1avUAhfXW--5" edge="1">
          <mxGeometry relative="1" as="geometry" />
        </mxCell>
        <mxCell id="zM2h7L1rqt1avUAhfXW--2" value="AST" style="whiteSpace=wrap;html=1;" parent="1" vertex="1">
          <mxGeometry x="260" y="315" width="120" height="60" as="geometry" />
        </mxCell>
        <mxCell id="zM2h7L1rqt1avUAhfXW--4" value="Lexical Analyze" style="text;html=1;strokeColor=none;fillColor=none;align=center;verticalAlign=middle;whiteSpace=wrap;rounded=0;" parent="1" vertex="1">
          <mxGeometry x="290" y="260" width="60" height="30" as="geometry" />
        </mxCell>
        <mxCell id="zM2h7L1rqt1avUAhfXW--9" value="" style="edgeStyle=orthogonalEdgeStyle;rounded=0;orthogonalLoop=1;jettySize=auto;html=1;" parent="1" source="zM2h7L1rqt1avUAhfXW--5" target="zM2h7L1rqt1avUAhfXW--8" edge="1">
          <mxGeometry relative="1" as="geometry" />
        </mxCell>
        <mxCell id="zM2h7L1rqt1avUAhfXW--5" value="Expression Tree" style="whiteSpace=wrap;html=1;" parent="1" vertex="1">
          <mxGeometry x="460" y="315" width="120" height="60" as="geometry" />
        </mxCell>
        <mxCell id="zM2h7L1rqt1avUAhfXW--7" value="Parser" style="text;html=1;strokeColor=none;fillColor=none;align=center;verticalAlign=middle;whiteSpace=wrap;rounded=0;" parent="1" vertex="1">
          <mxGeometry x="490" y="260" width="60" height="30" as="geometry" />
        </mxCell>
        <mxCell id="zM2h7L1rqt1avUAhfXW--12" value="" style="edgeStyle=orthogonalEdgeStyle;rounded=0;orthogonalLoop=1;jettySize=auto;html=1;entryX=0;entryY=0.5;entryDx=0;entryDy=0;" parent="1" source="zM2h7L1rqt1avUAhfXW--8" target="zM2h7L1rqt1avUAhfXW--14" edge="1">
          <mxGeometry relative="1" as="geometry">
            <mxPoint x="860" y="345" as="targetPoint" />
          </mxGeometry>
        </mxCell>
        <mxCell id="zM2h7L1rqt1avUAhfXW--8" value="Optimized Expression Tree" style="whiteSpace=wrap;html=1;" parent="1" vertex="1">
          <mxGeometry x="704.72" y="315" width="120" height="60" as="geometry" />
        </mxCell>
        <mxCell id="zM2h7L1rqt1avUAhfXW--10" value="Optimize" style="text;html=1;strokeColor=none;fillColor=none;align=center;verticalAlign=middle;whiteSpace=wrap;rounded=0;" parent="1" vertex="1">
          <mxGeometry x="734.78" y="260" width="60" height="30" as="geometry" />
        </mxCell>
        <mxCell id="zM2h7L1rqt1avUAhfXW--14" value="Execute Runtime" style="whiteSpace=wrap;html=1;" parent="1" vertex="1">
          <mxGeometry x="960" y="315" width="120" height="60" as="geometry" />
        </mxCell>
        <mxCell id="zM2h7L1rqt1avUAhfXW--16" value="execute" style="text;html=1;strokeColor=none;fillColor=none;align=center;verticalAlign=middle;whiteSpace=wrap;rounded=0;" parent="1" vertex="1">
          <mxGeometry x="990" y="260" width="60" height="30" as="geometry" />
        </mxCell>
        <mxCell id="S9R5j6vdlnm5v__grmyR-28" value="" style="shape=curlyBracket;whiteSpace=wrap;html=1;rounded=1;rotation=90;" vertex="1" parent="1">
          <mxGeometry x="405" y="245" width="20" height="310" as="geometry" />
        </mxCell>
        <mxCell id="S9R5j6vdlnm5v__grmyR-1" value="And" style="ellipse;whiteSpace=wrap;html=1;aspect=fixed;dashed=1;" vertex="1" parent="1">
          <mxGeometry x="427.04347826086956" y="473.72093023255815" width="20.751341681574235" height="20.751341681574235" as="geometry" />
        </mxCell>
        <mxCell id="S9R5j6vdlnm5v__grmyR-2" value="&amp;gt;" style="ellipse;whiteSpace=wrap;html=1;aspect=fixed;dashed=1;" vertex="1" parent="1">
          <mxGeometry x="374.8695652173913" y="561.9767441860465" width="20.751341681574235" height="20.751341681574235" as="geometry" />
        </mxCell>
        <mxCell id="S9R5j6vdlnm5v__grmyR-3" value="=" style="ellipse;whiteSpace=wrap;html=1;aspect=fixed;dashed=1;" vertex="1" parent="1">
          <mxGeometry x="490.304347826087" y="558.1395348837209" width="20.751341681574235" height="20.751341681574235" as="geometry" />
        </mxCell>
        <mxCell id="S9R5j6vdlnm5v__grmyR-4" value="/" style="ellipse;whiteSpace=wrap;html=1;aspect=fixed;dashed=1;" vertex="1" parent="1">
          <mxGeometry x="348.7826086956522" y="642.5581395348836" width="20.751341681574235" height="20.751341681574235" as="geometry" />
        </mxCell>
        <mxCell id="S9R5j6vdlnm5v__grmyR-5" value="1.0" style="ellipse;whiteSpace=wrap;html=1;aspect=fixed;dashed=1;" vertex="1" parent="1">
          <mxGeometry x="407.47826086956525" y="642.5581395348836" width="20.751341681574235" height="20.751341681574235" as="geometry" />
        </mxCell>
        <mxCell id="S9R5j6vdlnm5v__grmyR-6" value="city" style="ellipse;whiteSpace=wrap;html=1;aspect=fixed;dashed=1;" vertex="1" parent="1">
          <mxGeometry x="466.17391304347825" y="642.5581395348836" width="20.751341681574235" height="20.751341681574235" as="geometry" />
        </mxCell>
        <mxCell id="S9R5j6vdlnm5v__grmyR-7" value="&#39;深圳&#39;" style="ellipse;whiteSpace=wrap;html=1;aspect=fixed;dashed=1;" vertex="1" parent="1">
          <mxGeometry x="537.9130434782609" y="642.5581395348836" width="20.751341681574235" height="20.751341681574235" as="geometry" />
        </mxCell>
        <mxCell id="S9R5j6vdlnm5v__grmyR-8" value="" style="endArrow=classic;html=1;exitX=0.5;exitY=1;exitDx=0;exitDy=0;entryX=0.5;entryY=0;entryDx=0;entryDy=0;dashed=1;" edge="1" parent="1" source="S9R5j6vdlnm5v__grmyR-2" target="S9R5j6vdlnm5v__grmyR-4">
          <mxGeometry x="264" y="420" width="50" height="50" as="geometry">
            <mxPoint x="205.30434782608697" y="657.9069767441861" as="sourcePoint" />
            <mxPoint x="237.91304347826087" y="619.5348837209302" as="targetPoint" />
          </mxGeometry>
        </mxCell>
        <mxCell id="S9R5j6vdlnm5v__grmyR-9" value="" style="endArrow=classic;html=1;exitX=0.5;exitY=1;exitDx=0;exitDy=0;entryX=0.5;entryY=0;entryDx=0;entryDy=0;dashed=1;" edge="1" parent="1" source="S9R5j6vdlnm5v__grmyR-2" target="S9R5j6vdlnm5v__grmyR-5">
          <mxGeometry x="264" y="420" width="50" height="50" as="geometry">
            <mxPoint x="387.9130434782609" y="600.3488372093022" as="sourcePoint" />
            <mxPoint x="368.3478260869565" y="650.2325581395348" as="targetPoint" />
          </mxGeometry>
        </mxCell>
        <mxCell id="S9R5j6vdlnm5v__grmyR-10" value="" style="endArrow=classic;html=1;exitX=0.5;exitY=1;exitDx=0;exitDy=0;entryX=0.5;entryY=0;entryDx=0;entryDy=0;dashed=1;" edge="1" parent="1" source="S9R5j6vdlnm5v__grmyR-3" target="S9R5j6vdlnm5v__grmyR-7">
          <mxGeometry x="264" y="420" width="50" height="50" as="geometry">
            <mxPoint x="531.3913043478261" y="592.6744186046511" as="sourcePoint" />
            <mxPoint x="564" y="642.5581395348836" as="targetPoint" />
          </mxGeometry>
        </mxCell>
        <mxCell id="S9R5j6vdlnm5v__grmyR-11" value="" style="endArrow=classic;html=1;exitX=0.5;exitY=1;exitDx=0;exitDy=0;entryX=0.5;entryY=0;entryDx=0;entryDy=0;dashed=1;" edge="1" parent="1" source="S9R5j6vdlnm5v__grmyR-3" target="S9R5j6vdlnm5v__grmyR-6">
          <mxGeometry x="264" y="420" width="50" height="50" as="geometry">
            <mxPoint x="518.3478260869565" y="592.6744186046511" as="sourcePoint" />
            <mxPoint x="557.4782608695652" y="650.2325581395348" as="targetPoint" />
          </mxGeometry>
        </mxCell>
        <mxCell id="S9R5j6vdlnm5v__grmyR-12" value="" style="endArrow=classic;html=1;exitX=0;exitY=0.85;exitDx=0;exitDy=0;entryX=0.5;entryY=0;entryDx=0;entryDy=0;exitPerimeter=0;dashed=1;" edge="1" parent="1" source="S9R5j6vdlnm5v__grmyR-1" target="S9R5j6vdlnm5v__grmyR-2">
          <mxGeometry x="264" y="420" width="50" height="50" as="geometry">
            <mxPoint x="420.5217391304348" y="504.41860465116275" as="sourcePoint" />
            <mxPoint x="394.4347826086956" y="554.3023255813953" as="targetPoint" />
          </mxGeometry>
        </mxCell>
        <mxCell id="S9R5j6vdlnm5v__grmyR-13" value="" style="endArrow=classic;html=1;exitX=1;exitY=1;exitDx=0;exitDy=0;entryX=0;entryY=0;entryDx=0;entryDy=0;dashed=1;" edge="1" parent="1" source="S9R5j6vdlnm5v__grmyR-1" target="S9R5j6vdlnm5v__grmyR-3">
          <mxGeometry x="264" y="420" width="50" height="50" as="geometry">
            <mxPoint x="433.5652173913044" y="507.48837209302326" as="sourcePoint" />
            <mxPoint x="394.4347826086956" y="569.6511627906976" as="targetPoint" />
          </mxGeometry>
        </mxCell>
        <mxCell id="S9R5j6vdlnm5v__grmyR-14" value="And" style="ellipse;whiteSpace=wrap;html=1;aspect=fixed;dashed=1;" vertex="1" parent="1">
          <mxGeometry x="348.7826086956522" y="420" width="20.751341681574235" height="20.751341681574235" as="geometry" />
        </mxCell>
        <mxCell id="S9R5j6vdlnm5v__grmyR-15" value="&amp;gt;" style="ellipse;whiteSpace=wrap;html=1;aspect=fixed;dashed=1;" vertex="1" parent="1">
          <mxGeometry x="290.0869565217391" y="481.3953488372093" width="20.751341681574235" height="20.751341681574235" as="geometry" />
        </mxCell>
        <mxCell id="S9R5j6vdlnm5v__grmyR-16" value="a" style="ellipse;whiteSpace=wrap;html=1;aspect=fixed;dashed=1;" vertex="1" parent="1">
          <mxGeometry x="264" y="561.9767441860465" width="20.751341681574235" height="20.751341681574235" as="geometry" />
        </mxCell>
        <mxCell id="S9R5j6vdlnm5v__grmyR-17" value="10" style="ellipse;whiteSpace=wrap;html=1;aspect=fixed;dashed=1;" vertex="1" parent="1">
          <mxGeometry x="322.69565217391306" y="561.9767441860465" width="20.751341681574235" height="20.751341681574235" as="geometry" />
        </mxCell>
        <mxCell id="S9R5j6vdlnm5v__grmyR-18" value="" style="endArrow=classic;html=1;exitX=0.5;exitY=1;exitDx=0;exitDy=0;entryX=0.5;entryY=0;entryDx=0;entryDy=0;dashed=1;" edge="1" parent="1" source="S9R5j6vdlnm5v__grmyR-15" target="S9R5j6vdlnm5v__grmyR-16">
          <mxGeometry x="264" y="420" width="50" height="50" as="geometry">
            <mxPoint x="120.52173913043478" y="577.3255813953488" as="sourcePoint" />
            <mxPoint x="153.1304347826087" y="538.953488372093" as="targetPoint" />
          </mxGeometry>
        </mxCell>
        <mxCell id="S9R5j6vdlnm5v__grmyR-19" value="" style="endArrow=classic;html=1;exitX=0.5;exitY=1;exitDx=0;exitDy=0;entryX=0.5;entryY=0;entryDx=0;entryDy=0;dashed=1;" edge="1" parent="1" source="S9R5j6vdlnm5v__grmyR-15" target="S9R5j6vdlnm5v__grmyR-17">
          <mxGeometry x="264" y="420" width="50" height="50" as="geometry">
            <mxPoint x="303.1304347826087" y="519.767441860465" as="sourcePoint" />
            <mxPoint x="283.5652173913044" y="569.6511627906976" as="targetPoint" />
          </mxGeometry>
        </mxCell>
        <mxCell id="S9R5j6vdlnm5v__grmyR-20" value="" style="endArrow=classic;html=1;exitX=0;exitY=1;exitDx=0;exitDy=0;entryX=0.5;entryY=0;entryDx=0;entryDy=0;dashed=1;" edge="1" parent="1" source="S9R5j6vdlnm5v__grmyR-14" target="S9R5j6vdlnm5v__grmyR-15">
          <mxGeometry x="264" y="420" width="50" height="50" as="geometry">
            <mxPoint x="309.6521739130435" y="519.767441860465" as="sourcePoint" />
            <mxPoint x="342.2608695652174" y="569.6511627906976" as="targetPoint" />
          </mxGeometry>
        </mxCell>
        <mxCell id="S9R5j6vdlnm5v__grmyR-21" value="" style="endArrow=classic;html=1;exitX=1;exitY=1;exitDx=0;exitDy=0;entryX=0;entryY=0;entryDx=0;entryDy=0;dashed=1;" edge="1" parent="1" source="S9R5j6vdlnm5v__grmyR-14" target="S9R5j6vdlnm5v__grmyR-1">
          <mxGeometry x="264" y="420" width="50" height="50" as="geometry">
            <mxPoint x="359.1246941584363" y="453.8765226879797" as="sourcePoint" />
            <mxPoint x="309.6521739130435" y="489.06976744186045" as="targetPoint" />
          </mxGeometry>
        </mxCell>
        <mxCell id="S9R5j6vdlnm5v__grmyR-22" value="a" style="ellipse;whiteSpace=wrap;html=1;aspect=fixed;dashed=1;" vertex="1" parent="1">
          <mxGeometry x="322.69565217391306" y="719.3023255813953" width="20.751341681574235" height="20.751341681574235" as="geometry" />
        </mxCell>
        <mxCell id="S9R5j6vdlnm5v__grmyR-23" value="b" style="ellipse;whiteSpace=wrap;html=1;aspect=fixed;dashed=1;" vertex="1" parent="1">
          <mxGeometry x="368.3478260869565" y="719.3023255813953" width="20.751341681574235" height="20.751341681574235" as="geometry" />
        </mxCell>
        <mxCell id="S9R5j6vdlnm5v__grmyR-24" value="" style="endArrow=classic;html=1;entryX=0.5;entryY=0;entryDx=0;entryDy=0;dashed=1;exitX=0.5;exitY=1;exitDx=0;exitDy=0;" edge="1" parent="1" source="S9R5j6vdlnm5v__grmyR-4" target="S9R5j6vdlnm5v__grmyR-22">
          <mxGeometry x="264" y="420" width="50" height="50" as="geometry">
            <mxPoint x="361.82608695652175" y="673.2558139534883" as="sourcePoint" />
            <mxPoint x="329.2173913043478" y="730.813953488372" as="targetPoint" />
          </mxGeometry>
        </mxCell>
        <mxCell id="S9R5j6vdlnm5v__grmyR-25" value="" style="endArrow=classic;html=1;exitX=0.5;exitY=1;exitDx=0;exitDy=0;dashed=1;entryX=0.5;entryY=0;entryDx=0;entryDy=0;" edge="1" parent="1" source="S9R5j6vdlnm5v__grmyR-4" target="S9R5j6vdlnm5v__grmyR-23">
          <mxGeometry x="264" y="420" width="50" height="50" as="geometry">
            <mxPoint x="355.30434782608694" y="680.9302325581396" as="sourcePoint" />
            <mxPoint x="381.39130434782606" y="711.627906976744" as="targetPoint" />
          </mxGeometry>
        </mxCell>
        <mxCell id="S9R5j6vdlnm5v__grmyR-30" value="And" style="ellipse;whiteSpace=wrap;html=1;aspect=fixed;dashed=1;" vertex="1" parent="1">
          <mxGeometry x="813.0434782608695" y="473.72093023255815" width="20.751341681574235" height="20.751341681574235" as="geometry" />
        </mxCell>
        <mxCell id="S9R5j6vdlnm5v__grmyR-31" value="&amp;gt;" style="ellipse;whiteSpace=wrap;html=1;aspect=fixed;dashed=1;" vertex="1" parent="1">
          <mxGeometry x="760.8695652173913" y="561.9767441860465" width="20.751341681574235" height="20.751341681574235" as="geometry" />
        </mxCell>
        <mxCell id="S9R5j6vdlnm5v__grmyR-32" value="=" style="ellipse;whiteSpace=wrap;html=1;aspect=fixed;dashed=1;" vertex="1" parent="1">
          <mxGeometry x="876.304347826087" y="558.1395348837209" width="20.751341681574235" height="20.751341681574235" as="geometry" />
        </mxCell>
        <mxCell id="S9R5j6vdlnm5v__grmyR-33" value="/" style="ellipse;whiteSpace=wrap;html=1;aspect=fixed;dashed=1;" vertex="1" parent="1">
          <mxGeometry x="734.7826086956522" y="642.5581395348836" width="20.751341681574235" height="20.751341681574235" as="geometry" />
        </mxCell>
        <mxCell id="S9R5j6vdlnm5v__grmyR-34" value="1.0" style="ellipse;whiteSpace=wrap;html=1;aspect=fixed;dashed=1;" vertex="1" parent="1">
          <mxGeometry x="793.4782608695652" y="642.5581395348836" width="20.751341681574235" height="20.751341681574235" as="geometry" />
        </mxCell>
        <mxCell id="S9R5j6vdlnm5v__grmyR-35" value="city" style="ellipse;whiteSpace=wrap;html=1;aspect=fixed;dashed=1;" vertex="1" parent="1">
          <mxGeometry x="852.1739130434783" y="642.5581395348836" width="20.751341681574235" height="20.751341681574235" as="geometry" />
        </mxCell>
        <mxCell id="S9R5j6vdlnm5v__grmyR-36" value="&#39;深圳&#39;" style="ellipse;whiteSpace=wrap;html=1;aspect=fixed;dashed=1;" vertex="1" parent="1">
          <mxGeometry x="923.9130434782609" y="642.5581395348836" width="20.751341681574235" height="20.751341681574235" as="geometry" />
        </mxCell>
        <mxCell id="S9R5j6vdlnm5v__grmyR-37" value="" style="endArrow=classic;html=1;exitX=0.5;exitY=1;exitDx=0;exitDy=0;entryX=0.5;entryY=0;entryDx=0;entryDy=0;dashed=1;" edge="1" parent="1" source="S9R5j6vdlnm5v__grmyR-31" target="S9R5j6vdlnm5v__grmyR-33">
          <mxGeometry x="650" y="420" width="50" height="50" as="geometry">
            <mxPoint x="591.304347826087" y="657.9069767441861" as="sourcePoint" />
            <mxPoint x="623.9130434782609" y="619.5348837209302" as="targetPoint" />
          </mxGeometry>
        </mxCell>
        <mxCell id="S9R5j6vdlnm5v__grmyR-38" value="" style="endArrow=classic;html=1;exitX=0.5;exitY=1;exitDx=0;exitDy=0;entryX=0.5;entryY=0;entryDx=0;entryDy=0;dashed=1;" edge="1" parent="1" source="S9R5j6vdlnm5v__grmyR-31" target="S9R5j6vdlnm5v__grmyR-34">
          <mxGeometry x="650" y="420" width="50" height="50" as="geometry">
            <mxPoint x="773.9130434782609" y="600.3488372093022" as="sourcePoint" />
            <mxPoint x="754.3478260869565" y="650.2325581395348" as="targetPoint" />
          </mxGeometry>
        </mxCell>
        <mxCell id="S9R5j6vdlnm5v__grmyR-39" value="" style="endArrow=classic;html=1;exitX=0.5;exitY=1;exitDx=0;exitDy=0;entryX=0.5;entryY=0;entryDx=0;entryDy=0;dashed=1;" edge="1" parent="1" source="S9R5j6vdlnm5v__grmyR-32" target="S9R5j6vdlnm5v__grmyR-36">
          <mxGeometry x="650" y="420" width="50" height="50" as="geometry">
            <mxPoint x="917.3913043478261" y="592.6744186046511" as="sourcePoint" />
            <mxPoint x="950" y="642.5581395348836" as="targetPoint" />
          </mxGeometry>
        </mxCell>
        <mxCell id="S9R5j6vdlnm5v__grmyR-40" value="" style="endArrow=classic;html=1;exitX=0.5;exitY=1;exitDx=0;exitDy=0;entryX=0.5;entryY=0;entryDx=0;entryDy=0;dashed=1;" edge="1" parent="1" source="S9R5j6vdlnm5v__grmyR-32" target="S9R5j6vdlnm5v__grmyR-35">
          <mxGeometry x="650" y="420" width="50" height="50" as="geometry">
            <mxPoint x="904.3478260869565" y="592.6744186046511" as="sourcePoint" />
            <mxPoint x="943.4782608695652" y="650.2325581395348" as="targetPoint" />
          </mxGeometry>
        </mxCell>
        <mxCell id="S9R5j6vdlnm5v__grmyR-41" value="" style="endArrow=classic;html=1;exitX=0;exitY=0.85;exitDx=0;exitDy=0;entryX=0.5;entryY=0;entryDx=0;entryDy=0;exitPerimeter=0;dashed=1;" edge="1" parent="1" source="S9R5j6vdlnm5v__grmyR-30" target="S9R5j6vdlnm5v__grmyR-31">
          <mxGeometry x="650" y="420" width="50" height="50" as="geometry">
            <mxPoint x="806.5217391304348" y="504.41860465116275" as="sourcePoint" />
            <mxPoint x="780.4347826086956" y="554.3023255813953" as="targetPoint" />
          </mxGeometry>
        </mxCell>
        <mxCell id="S9R5j6vdlnm5v__grmyR-42" value="" style="endArrow=classic;html=1;exitX=1;exitY=1;exitDx=0;exitDy=0;entryX=0;entryY=0;entryDx=0;entryDy=0;dashed=1;" edge="1" parent="1" source="S9R5j6vdlnm5v__grmyR-30" target="S9R5j6vdlnm5v__grmyR-32">
          <mxGeometry x="650" y="420" width="50" height="50" as="geometry">
            <mxPoint x="819.5652173913044" y="507.48837209302326" as="sourcePoint" />
            <mxPoint x="780.4347826086956" y="569.6511627906976" as="targetPoint" />
          </mxGeometry>
        </mxCell>
        <mxCell id="S9R5j6vdlnm5v__grmyR-43" value="And" style="ellipse;whiteSpace=wrap;html=1;aspect=fixed;dashed=1;" vertex="1" parent="1">
          <mxGeometry x="734.7826086956522" y="420" width="20.751341681574235" height="20.751341681574235" as="geometry" />
        </mxCell>
        <mxCell id="S9R5j6vdlnm5v__grmyR-44" value="&amp;gt;" style="ellipse;whiteSpace=wrap;html=1;aspect=fixed;dashed=1;" vertex="1" parent="1">
          <mxGeometry x="676.0869565217391" y="481.3953488372093" width="20.751341681574235" height="20.751341681574235" as="geometry" />
        </mxCell>
        <mxCell id="S9R5j6vdlnm5v__grmyR-46" value="10" style="ellipse;whiteSpace=wrap;html=1;aspect=fixed;dashed=1;" vertex="1" parent="1">
          <mxGeometry x="708.695652173913" y="561.9767441860465" width="20.751341681574235" height="20.751341681574235" as="geometry" />
        </mxCell>
        <mxCell id="S9R5j6vdlnm5v__grmyR-47" value="" style="endArrow=classic;html=1;exitX=0.5;exitY=1;exitDx=0;exitDy=0;entryX=0.5;entryY=0;entryDx=0;entryDy=0;" edge="1" parent="1" source="S9R5j6vdlnm5v__grmyR-44" target="S9R5j6vdlnm5v__grmyR-51">
          <mxGeometry x="650" y="420" width="50" height="50" as="geometry">
            <mxPoint x="506.52173913043475" y="577.3255813953488" as="sourcePoint" />
            <mxPoint x="660.375670840787" y="561.9767441860465" as="targetPoint" />
          </mxGeometry>
        </mxCell>
        <mxCell id="S9R5j6vdlnm5v__grmyR-48" value="" style="endArrow=classic;html=1;exitX=0.5;exitY=1;exitDx=0;exitDy=0;entryX=0.5;entryY=0;entryDx=0;entryDy=0;dashed=1;" edge="1" parent="1" source="S9R5j6vdlnm5v__grmyR-44" target="S9R5j6vdlnm5v__grmyR-46">
          <mxGeometry x="650" y="420" width="50" height="50" as="geometry">
            <mxPoint x="689.1304347826087" y="519.767441860465" as="sourcePoint" />
            <mxPoint x="669.5652173913044" y="569.6511627906976" as="targetPoint" />
          </mxGeometry>
        </mxCell>
        <mxCell id="S9R5j6vdlnm5v__grmyR-49" value="" style="endArrow=classic;html=1;exitX=0;exitY=1;exitDx=0;exitDy=0;entryX=0.5;entryY=0;entryDx=0;entryDy=0;dashed=1;" edge="1" parent="1" source="S9R5j6vdlnm5v__grmyR-43" target="S9R5j6vdlnm5v__grmyR-44">
          <mxGeometry x="650" y="420" width="50" height="50" as="geometry">
            <mxPoint x="695.6521739130435" y="519.767441860465" as="sourcePoint" />
            <mxPoint x="728.2608695652174" y="569.6511627906976" as="targetPoint" />
          </mxGeometry>
        </mxCell>
        <mxCell id="S9R5j6vdlnm5v__grmyR-50" value="" style="endArrow=classic;html=1;exitX=1;exitY=1;exitDx=0;exitDy=0;entryX=0;entryY=0;entryDx=0;entryDy=0;dashed=1;" edge="1" parent="1" source="S9R5j6vdlnm5v__grmyR-43" target="S9R5j6vdlnm5v__grmyR-30">
          <mxGeometry x="650" y="420" width="50" height="50" as="geometry">
            <mxPoint x="745.1246941584362" y="453.8765226879797" as="sourcePoint" />
            <mxPoint x="695.6521739130435" y="489.06976744186045" as="targetPoint" />
          </mxGeometry>
        </mxCell>
        <mxCell id="S9R5j6vdlnm5v__grmyR-51" value="a" style="ellipse;whiteSpace=wrap;html=1;aspect=fixed;fillColor=#009900;" vertex="1" parent="1">
          <mxGeometry x="659.995652173913" y="719.3023255813953" width="20.751341681574235" height="20.751341681574235" as="geometry" />
        </mxCell>
        <mxCell id="S9R5j6vdlnm5v__grmyR-52" value="b" style="ellipse;whiteSpace=wrap;html=1;aspect=fixed;dashed=1;" vertex="1" parent="1">
          <mxGeometry x="754.3478260869565" y="719.3023255813953" width="20.751341681574235" height="20.751341681574235" as="geometry" />
        </mxCell>
        <mxCell id="S9R5j6vdlnm5v__grmyR-53" value="" style="endArrow=classic;html=1;entryX=0.5;entryY=0;entryDx=0;entryDy=0;exitX=0.5;exitY=1;exitDx=0;exitDy=0;" edge="1" parent="1" target="S9R5j6vdlnm5v__grmyR-51" source="S9R5j6vdlnm5v__grmyR-33">
          <mxGeometry x="650" y="420" width="50" height="50" as="geometry">
            <mxPoint x="747.8260869565217" y="673.2558139534883" as="sourcePoint" />
            <mxPoint x="715.2173913043479" y="730.813953488372" as="targetPoint" />
          </mxGeometry>
        </mxCell>
        <mxCell id="S9R5j6vdlnm5v__grmyR-54" value="" style="endArrow=classic;html=1;exitX=0.5;exitY=1;exitDx=0;exitDy=0;dashed=1;entryX=0.5;entryY=0;entryDx=0;entryDy=0;" edge="1" parent="1" source="S9R5j6vdlnm5v__grmyR-33" target="S9R5j6vdlnm5v__grmyR-52">
          <mxGeometry x="650" y="420" width="50" height="50" as="geometry">
            <mxPoint x="741.304347826087" y="680.9302325581396" as="sourcePoint" />
            <mxPoint x="767.3913043478261" y="711.627906976744" as="targetPoint" />
          </mxGeometry>
        </mxCell>
        <mxCell id="S9R5j6vdlnm5v__grmyR-55" value="" style="shape=curlyBracket;whiteSpace=wrap;html=1;rounded=1;rotation=90;" vertex="1" parent="1">
          <mxGeometry x="749.82" y="311.4" width="25.28" height="170" as="geometry" />
        </mxCell>
      </root>
    </mxGraphModel>
  </diagram>
</mxfile>
